<svg xmlns="http://www.w3.org/2000/svg" viewBox="0 0 27.07 33.07"><defs><style>.cls-1{fill:#113462;}</style></defs><title>arrow_down_nn</title><g id="レイヤー_2" data-name="レイヤー 2"><g id="レイヤー_1-2" data-name="レイヤー 1"><path class="cls-1" d="M12.12,8.3,4.41.58a2,2,0,0,0-2.82,0l-1,1a2,2,0,0,0,0,2.82L12.12,16a2,2,0,0,0,2.82,0L26.48,4.41a2,2,0,0,0,0-2.82l-1-1a2,2,0,0,0-2.81,0L14.94,8.3A2,2,0,0,1,12.12,8.3Z"/><path class="cls-1" d="M12.12,24.83,4.41,17.12a2,2,0,0,0-2.82,0l-1,1a2,2,0,0,0,0,2.81L12.12,32.48a2,2,0,0,0,2.82,0L26.48,20.94a2,2,0,0,0,0-2.81l-1-1a2,2,0,0,0-2.81,0l-7.72,7.71A2,2,0,0,1,12.12,24.83Z"/></g></g></svg>