<?xml version="1.0" encoding="UTF-8"?>
<svg width="59px" height="72px" viewBox="0 0 59 72" version="1.1" xmlns="http://www.w3.org/2000/svg" xmlns:xlink="http://www.w3.org/1999/xlink">
    <!-- Generator: Sketch 61 (89581) - https://sketch.com -->
    <title>sort_icon_abc</title>
    <desc>Created with Sketch.</desc>
    <g id="search" stroke="none" stroke-width="1" fill="none" fill-rule="evenodd">
        <g id="Artboard" transform="translate(-368.000000, -103.000000)" fill="#51B8B9" fill-rule="nonzero">
            <g id="sort_icon_abc" transform="translate(368.000000, 103.000000)">
                <path d="M47.25,13.5 L18,13.5 L18,31.5 L47.25,31.5 L47.25,13.5 Z M43.59375,27.9 L21.65625,27.9 L21.65625,13.5 L43.59375,13.5 L43.59375,27.9 Z" id="Shape"></path>
                <polygon id="Path" points="24.75 13.5 38.25 13.5 38.25 18 24.75 18"></polygon>
                <polygon id="Path" points="24.75 22.5 29.25 22.5 29.25 27 24.75 27"></polygon>
                <polygon id="Path" points="33.75 22.5 40.5 22.5 40.5 27 33.75 27"></polygon>
                <path d="M58.5,3.59909171 L58.5,0 L0,0 L0,72 L58.5,72 L58.5,7.2 L54.8366316,7.2 L54.8366316,3.59909171 L58.5,3.59909171 Z M7.3125,68.4 L7.3125,7.2 L10.96875,7.2 L10.96875,68.4 L7.3125,68.4 Z M54.84375,68.4 L10.96875,68.4 L10.96875,10.8 L54.84375,10.8 L54.84375,68.4 Z M7.3125,7.2 L7.3125,3.6 L51.1875,3.6 L51.1875,7.2 L7.3125,7.2 Z" id="Shape"></path>
                <path d="M15.75,56.25 L15.75,49.5 L22.5,49.5 L22.5,56.25 L24.75,56.25 L24.75,46.125 C24.75,43.0180661 22.2319339,40.5 19.125,40.5 C16.0180661,40.5 13.5,43.0180661 13.5,46.125 L13.5,56.25 L15.75,56.25 Z M19.125,42.75 C20.9882812,42.75 22.5,44.2617188 22.5,46.125 L22.5,47.25 L15.75,47.25 L15.75,46.125 C15.75,44.2617188 17.2617188,42.75 19.125,42.75 Z" id="Shape"></path>
                <path d="M38.2483966,44.9999718 C38.2483966,42.5126821 36.2359887,40.5 33.7490379,40.5 L27,40.5 L27,56.249951 L33.7490379,56.249951 C35.6252356,56.2586898 37.3081004,55.0985408 37.9671867,53.3407393 C38.6218782,51.5829379 38.1165789,49.6010175 36.6929548,48.3749507 C37.6771895,47.5268118 38.244003,46.2963507 38.2483966,44.9999718 Z M35.9987173,51.7499296 C35.9987173,52.9935744 34.9925133,53.9999155 33.7490379,53.9999155 L29.2496793,53.9999155 L29.2496793,49.4999436 L33.7490379,49.4999436 C34.9925133,49.4999436 35.9987173,50.5062847 35.9987173,51.7499296 Z M29.2496793,47.2499577 L29.2496793,42.7499859 L33.7490379,42.7499859 C34.9925133,42.7499859 35.9987173,43.756327 35.9987173,44.9999718 C35.9987173,46.2436167 34.9925133,47.2499577 33.7490379,47.2499577 L29.2496793,47.2499577 Z" id="Shape"></path>
                <path d="M40.5,46.125 L40.5,50.625 C40.5,53.7319339 43.0180661,56.25 46.125,56.25 C49.2319339,56.25 51.75,53.7319339 51.75,50.625 L49.5,50.625 C49.5,52.4882812 47.9882812,54 46.125,54 C44.2617188,54 42.75,52.4882812 42.75,50.625 L42.75,46.125 C42.75,44.2617188 44.2617188,42.75 46.125,42.75 C47.9882812,42.75 49.5,44.2617188 49.5,46.125 L51.75,46.125 C51.75,43.0180661 49.2319339,40.5 46.125,40.5 C43.0180661,40.5 40.5,43.0180661 40.5,46.125 Z" id="Path"></path>
            </g>
        </g>
    </g>
</svg>